# xmcd CD database file
#
# Track frame offsets:
#	150
#	23847
#	39453
#	58917
#	79106
#	100344
#	118886
#	138839
#	155510
#	184657
#	204490
#	223154
#	243274
#	261748
#	281523
#	302518
#
# Disc length: 4254 seconds
#
# Revision: 1
# Processed by: cddbd v1.5.2PL0 Copyright (c) Steve Scherf et al.
# Submitted via: CDex 1.51
#
DISCID=ea109c10
DTITLE=Club des Belugas - Swop
DYEAR=2008
DGENRE=Jazz
TTITLE0=What Is Jazz
TTITLE1=It's A Beautiful Day
TTITLE2=Frankie
TTITLE3=Peace With Come With Sleep (Triple Bass Mix)
TTITLE4=Some Like It Hot
TTITLE5=Puttin' On The Ritz (Club Des Belugas Remix)
TTITLE6=She Said No
TTITLE7=Cats' N Boys
TTITLE8=Wearing Out My Shoes
TTITLE9=Second Sight
TTITLE10=Take Three
TTITLE11=It Don't Mean A Thing
TTITLE12=The Road Is Lonesome
TTITLE13=A Men's Scene
TTITLE14=What Is Jazz (Tape Five Remix)
TTITLE15=Cats' N Girls (Cats' N Boys Re-Sing)
EXTD=YEAR: 2008
EXTT0=
EXTT1=
EXTT2=
EXTT3=
EXTT4=
EXTT5=
EXTT6=
EXTT7=
EXTT8=
EXTT9=
EXTT10=
EXTT11=
EXTT12=
EXTT13=
EXTT14=
EXTT15=
PLAYORDER=
